# xmcd
#
# Track frame offsets: 
#        150
#        11294
#        28236
#        45781
#        62827
#        80043
#        93568
#        109874
#        130865
#        151811
#        158345
#        174269
#        191987
#
# Disc length: 2692 seconds
#
# Revision: 2
# Processed by: cddbd v1.5.2PL0 Copyright (c) Steve Scherf et al.
# Submitted via: ExactAudioCopy v0.95b3
#
DISCID=980a820d
DTITLE=Various Artist - Soul Kitchen OST [CD2)
DYEAR=2009
DGENRE=Soul
TTITLE0=Burning Spear - Walking In Dub
TTITLE1=Silly Walks Movement feat. Jan Delay - Soundhaudegen
TTITLE2=Locomondo - Frangosiriani
TTITLE3=Shantel - Manolis O Hasiklis
TTITLE4=Love Ravers - Mission Of Love
TTITLE5=Er France - Sing Song Girl
TTITLE6=Bad Bay Boogiez - Moon Shayn
TTITLE7=Steven Pfeffer - Arcilla
TTITLE8=Pavlos Sidiropoulos - To Blues Tou Paliokaravou
TTITLE9=Steve Baker - Steve's La Paloma
TTITLE10=Turtle Bay Country Club - Sisters Keepers Dub
TTITLE11=Broke But Busy - Gang and Gaebe
TTITLE12=Hans Albers - Das letzte Hemd hat leider keine Taschen
EXTD=
EXTT0=
EXTT1=
EXTT2=
EXTT3=
EXTT4=
EXTT5=
EXTT6=
EXTT7=
EXTT8=
EXTT9=
EXTT10=
EXTT11=
EXTT12=
PLAYORDER=
